<svg id="svg" version="1.1" xmlns="http://www.w3.org/2000/svg" xmlns:xlink="http://www.w3.org/1999/xlink" width="400" height="27.5" viewBox="0, 0, 400,27.5"><g id="svgg"><path id="path0" d="M257.583 1.333 C 257.877 1.658,257.874 1.667,257.492 1.667 C 257.211 1.667,257.151 1.718,257.280 1.847 C 257.410 1.976,257.561 1.965,257.814 1.807 C 258.226 1.550,258.273 1.333,257.917 1.333 C 257.779 1.333,257.667 1.258,257.667 1.167 C 257.667 1.075,257.580 1.000,257.474 1.000 C 257.365 1.000,257.412 1.144,257.583 1.333 M298.292 1.443 C 298.040 1.487,297.833 1.577,297.833 1.644 C 297.833 1.711,297.581 1.858,297.272 1.969 C 296.277 2.329,295.014 3.831,294.518 5.244 C 294.390 5.607,294.184 6.006,294.060 6.131 C 293.935 6.255,293.833 6.497,293.833 6.669 C 293.833 6.840,293.758 7.027,293.667 7.083 C 293.575 7.140,293.500 7.332,293.500 7.510 C 293.500 7.688,293.425 7.833,293.333 7.833 C 293.242 7.833,293.167 7.911,293.167 8.007 C 293.167 8.102,292.935 8.684,292.653 9.299 C 292.370 9.914,292.004 10.717,291.841 11.083 C 291.677 11.450,291.318 12.237,291.042 12.833 C 290.767 13.429,290.442 14.198,290.321 14.542 C 290.199 14.885,290.046 15.167,289.980 15.167 C 289.914 15.167,289.731 15.560,289.572 16.042 C 289.414 16.523,289.235 16.954,289.174 17.000 C 289.114 17.046,288.963 17.346,288.839 17.667 C 288.715 17.987,288.390 18.737,288.117 19.333 C 287.844 19.929,287.442 20.810,287.224 21.290 C 285.551 24.974,285.087 25.612,283.496 26.419 C 282.524 26.911,280.849 27.003,280.500 26.583 C 280.386 26.446,280.188 26.333,280.061 26.333 C 279.504 26.333,278.059 25.002,276.333 22.900 C 275.829 22.286,275.267 21.609,275.083 21.396 C 274.900 21.184,274.525 20.741,274.250 20.411 C 273.975 20.082,273.637 19.684,273.500 19.527 C 273.362 19.369,272.913 18.830,272.501 18.329 C 272.089 17.827,271.676 17.331,271.584 17.225 C 271.492 17.120,271.192 16.751,270.917 16.407 C 270.642 16.062,270.229 15.579,270.000 15.333 C 269.771 15.088,269.358 14.600,269.083 14.248 C 268.808 13.896,268.283 13.273,267.917 12.864 C 267.550 12.454,267.150 11.977,267.028 11.803 C 266.905 11.629,266.614 11.284,266.381 11.035 C 266.148 10.787,265.546 10.077,265.043 9.458 C 264.540 8.840,264.058 8.333,263.971 8.333 C 263.885 8.333,263.849 8.276,263.893 8.205 C 263.936 8.135,263.528 7.592,262.986 6.999 C 262.444 6.405,262.000 5.863,262.000 5.793 C 262.000 5.724,261.883 5.667,261.740 5.667 C 261.597 5.667,261.520 5.603,261.568 5.524 C 261.617 5.446,261.396 5.090,261.078 4.733 C 260.760 4.376,260.500 4.027,260.500 3.958 C 260.500 3.890,260.444 3.852,260.375 3.875 C 260.306 3.898,260.233 3.859,260.212 3.788 C 260.167 3.637,259.945 3.361,259.205 2.533 L 258.660 1.923 258.772 2.487 C 258.852 2.883,258.830 3.018,258.700 2.937 C 258.598 2.874,258.562 2.700,258.619 2.551 C 258.690 2.365,258.660 2.318,258.522 2.403 C 258.374 2.494,258.347 2.400,258.419 2.056 L 258.519 1.583 258.282 1.984 C 258.107 2.278,258.020 2.322,257.952 2.150 C 257.901 2.022,257.857 1.992,257.853 2.083 C 257.850 2.175,258.144 2.578,258.507 2.980 C 258.870 3.381,259.167 3.620,259.167 3.510 C 259.167 3.376,259.250 3.393,259.417 3.560 C 259.554 3.697,259.667 3.890,259.667 3.988 C 259.667 4.086,259.748 4.167,259.847 4.167 C 259.947 4.167,259.997 4.258,259.960 4.369 C 259.923 4.480,260.142 4.820,260.447 5.124 C 260.751 5.429,261.000 5.737,261.000 5.809 C 261.000 5.881,261.169 6.096,261.375 6.287 C 261.771 6.654,261.998 6.922,264.171 9.583 C 264.920 10.500,265.675 11.384,265.849 11.548 C 266.024 11.712,266.169 11.900,266.171 11.965 C 266.174 12.030,266.455 12.388,266.796 12.760 C 267.137 13.132,267.792 13.901,268.250 14.468 C 268.708 15.035,269.140 15.499,269.208 15.499 C 269.277 15.500,269.333 15.600,269.333 15.722 C 269.333 15.845,269.540 16.141,269.792 16.380 C 270.044 16.620,270.475 17.092,270.750 17.431 C 271.025 17.769,271.325 18.130,271.417 18.232 C 271.508 18.334,271.877 18.792,272.236 19.250 C 272.596 19.708,273.024 20.233,273.189 20.417 C 273.353 20.600,273.671 20.975,273.896 21.250 C 274.120 21.525,274.595 22.087,274.951 22.500 C 275.306 22.912,275.932 23.662,276.340 24.167 C 277.051 25.045,277.922 25.942,278.627 26.522 C 280.049 27.691,283.530 27.787,284.710 26.690 C 286.020 25.472,286.391 24.985,287.013 23.667 C 287.948 21.687,288.167 21.168,288.167 20.927 C 288.167 20.784,288.237 20.667,288.322 20.667 C 288.408 20.667,288.528 20.498,288.589 20.292 C 288.705 19.901,289.616 17.882,290.176 16.776 C 290.354 16.424,290.500 16.035,290.500 15.913 C 290.500 15.791,290.605 15.585,290.734 15.457 C 290.863 15.328,291.084 14.891,291.227 14.486 C 291.370 14.081,291.675 13.375,291.905 12.917 C 292.135 12.458,292.325 11.952,292.328 11.792 C 292.331 11.631,292.403 11.500,292.489 11.500 C 292.574 11.500,292.694 11.331,292.755 11.125 C 292.816 10.919,293.076 10.300,293.334 9.750 C 293.592 9.200,293.967 8.375,294.166 7.917 C 297.185 0.974,298.786 0.542,304.527 5.119 C 306.054 6.337,307.385 7.333,307.485 7.333 C 307.585 7.333,307.667 7.410,307.667 7.503 C 307.667 7.596,307.929 7.797,308.250 7.950 C 308.571 8.103,308.833 8.278,308.833 8.339 C 308.833 8.400,309.152 8.591,309.542 8.763 C 309.931 8.936,310.345 9.168,310.460 9.279 C 310.576 9.389,310.932 9.574,311.252 9.690 C 311.572 9.806,311.833 9.954,311.833 10.020 C 311.833 10.086,312.227 10.270,312.708 10.429 C 313.190 10.588,313.733 10.811,313.917 10.925 C 314.100 11.039,314.438 11.186,314.667 11.253 C 314.896 11.319,315.383 11.507,315.750 11.671 C 316.117 11.834,316.885 12.060,317.458 12.173 C 318.031 12.285,318.500 12.431,318.500 12.498 C 318.500 12.723,321.575 13.083,323.417 13.073 C 325.214 13.064,327.833 12.728,327.833 12.508 C 327.833 12.447,328.215 12.299,328.681 12.179 C 330.245 11.778,332.601 10.400,333.758 9.208 C 333.958 9.002,334.202 8.833,334.301 8.833 C 334.400 8.833,334.579 8.697,334.699 8.530 C 334.819 8.364,335.160 8.085,335.458 7.911 C 335.756 7.737,336.000 7.547,336.000 7.489 C 336.000 7.431,336.300 7.249,336.667 7.083 C 337.033 6.918,337.333 6.731,337.333 6.668 C 337.333 6.605,337.802 6.415,338.375 6.247 C 338.948 6.079,339.492 5.889,339.583 5.825 C 340.471 5.202,346.912 5.208,347.750 5.832 C 347.842 5.900,348.310 6.084,348.792 6.241 C 349.273 6.398,349.667 6.581,349.667 6.647 C 349.667 6.713,350.042 6.902,350.500 7.067 C 350.958 7.232,351.333 7.419,351.333 7.484 C 351.333 7.548,351.727 7.741,352.208 7.912 C 352.690 8.083,353.233 8.313,353.417 8.424 C 353.600 8.534,354.106 8.726,354.542 8.849 C 354.977 8.972,355.333 9.120,355.333 9.177 C 355.333 9.234,355.802 9.419,356.375 9.589 C 356.948 9.759,357.567 9.987,357.750 10.097 C 357.933 10.206,358.496 10.389,359.000 10.503 C 359.504 10.617,359.992 10.767,360.083 10.837 C 360.175 10.906,360.813 11.091,361.500 11.247 C 362.188 11.403,362.900 11.596,363.083 11.675 C 365.146 12.571,376.474 13.227,377.782 12.527 C 377.948 12.438,379.547 12.247,381.334 12.103 C 383.121 11.958,385.033 11.800,385.583 11.752 C 389.330 11.421,390.783 11.360,395.125 11.347 L 400.000 11.333 400.000 10.917 L 400.000 10.500 395.458 10.514 C 392.960 10.522,390.054 10.597,389.000 10.682 C 387.946 10.767,386.146 10.905,385.000 10.988 C 380.076 11.344,378.239 11.537,378.018 11.721 C 377.614 12.056,367.992 11.989,366.833 11.643 C 366.329 11.492,365.279 11.276,364.500 11.163 C 363.721 11.049,363.008 10.901,362.917 10.834 C 362.825 10.767,362.188 10.579,361.500 10.417 C 360.813 10.254,360.175 10.063,360.083 9.992 C 359.992 9.921,359.429 9.737,358.833 9.583 C 358.238 9.429,357.675 9.245,357.583 9.174 C 357.492 9.102,357.014 8.913,356.523 8.752 C 356.031 8.592,355.431 8.358,355.190 8.231 C 354.948 8.105,354.690 8.002,354.616 8.001 C 354.412 7.999,351.595 6.772,351.500 6.643 C 351.453 6.581,351.078 6.397,350.666 6.235 C 350.254 6.073,349.875 5.879,349.825 5.805 C 349.069 4.699,340.835 4.043,339.583 4.989 C 339.492 5.058,339.042 5.216,338.583 5.340 C 337.060 5.750,334.848 7.121,333.104 8.736 C 332.749 9.064,332.425 9.333,332.385 9.333 C 332.344 9.333,332.072 9.515,331.781 9.737 C 330.986 10.343,329.380 11.150,328.560 11.357 C 328.160 11.457,327.833 11.593,327.833 11.658 C 327.833 12.415,320.147 12.419,318.417 11.662 C 318.233 11.582,317.596 11.388,317.000 11.231 C 316.404 11.073,315.769 10.844,315.588 10.722 C 315.407 10.600,315.145 10.498,315.005 10.495 C 314.865 10.492,314.302 10.267,313.754 9.995 C 313.207 9.723,312.668 9.500,312.558 9.500 C 312.447 9.500,312.254 9.406,312.128 9.292 C 312.002 9.177,311.266 8.753,310.491 8.349 C 309.717 7.944,308.896 7.474,308.667 7.303 C 308.438 7.132,307.762 6.617,307.167 6.159 C 306.571 5.702,305.865 5.160,305.597 4.955 C 305.330 4.751,304.947 4.415,304.745 4.208 C 304.543 4.002,304.302 3.833,304.210 3.833 C 304.117 3.833,303.938 3.709,303.812 3.558 C 303.448 3.119,301.950 2.059,301.497 1.920 C 301.270 1.850,300.992 1.720,300.881 1.631 C 300.650 1.446,298.977 1.325,298.292 1.443 " stroke="none" fill="#c93fd2" fill-rule="evenodd"></path><path id="path1" d="M158.417 9.826 C 158.737 9.971,159.629 10.065,159.486 9.939 C 159.448 9.905,159.117 9.832,158.750 9.776 C 158.285 9.705,158.184 9.720,158.417 9.826 M159.708 10.143 C 159.708 10.392,159.755 10.460,159.836 10.330 C 159.905 10.217,160.032 10.167,160.116 10.219 C 160.200 10.271,160.790 10.358,161.426 10.412 C 162.063 10.466,162.835 10.543,163.142 10.583 C 163.450 10.623,163.993 10.672,164.351 10.694 C 164.708 10.715,165.000 10.788,165.000 10.856 C 165.000 10.924,165.131 10.975,165.292 10.970 C 165.927 10.949,168.587 11.441,168.917 11.640 C 169.008 11.695,169.158 11.757,169.250 11.777 C 170.098 11.960,171.600 12.402,171.667 12.488 C 171.713 12.548,172.200 12.743,172.750 12.922 C 173.300 13.102,173.796 13.312,173.852 13.389 C 173.908 13.465,174.021 13.522,174.102 13.515 C 174.292 13.498,175.272 13.809,175.917 14.092 C 176.652 14.414,177.975 14.833,178.256 14.833 C 178.390 14.833,178.500 14.897,178.500 14.975 C 178.500 15.053,179.006 15.251,179.625 15.416 C 180.244 15.580,180.836 15.781,180.941 15.863 C 181.047 15.945,181.272 16.046,181.441 16.088 C 182.964 16.457,183.333 16.573,183.333 16.681 C 183.333 16.750,183.875 16.930,184.537 17.080 C 185.199 17.231,185.818 17.415,185.912 17.490 C 186.530 17.980,191.041 18.157,193.040 17.770 C 193.658 17.651,194.202 17.591,194.249 17.637 C 194.295 17.684,194.333 17.635,194.333 17.528 C 194.333 17.421,194.497 17.333,194.697 17.333 C 195.248 17.333,197.000 16.810,197.000 16.645 C 197.000 16.565,197.146 16.500,197.323 16.500 C 197.501 16.500,197.693 16.425,197.750 16.333 C 197.807 16.242,197.993 16.167,198.165 16.167 C 198.336 16.167,198.605 16.038,198.762 15.881 C 198.918 15.724,199.160 15.579,199.298 15.559 C 199.437 15.539,199.595 15.459,199.650 15.383 C 199.705 15.306,200.125 15.002,200.583 14.707 C 201.313 14.237,201.365 14.169,201.000 14.157 C 200.621 14.144,200.614 14.131,200.917 14.009 C 201.100 13.935,201.306 13.908,201.375 13.947 C 201.444 13.987,201.500 13.919,201.500 13.796 C 201.500 13.416,200.648 13.451,200.548 13.836 C 200.500 14.020,200.282 14.215,200.063 14.270 C 199.845 14.325,199.667 14.436,199.667 14.518 C 199.667 14.600,199.610 14.648,199.542 14.626 C 199.389 14.576,198.131 15.331,197.961 15.575 C 197.894 15.671,197.837 15.685,197.836 15.605 C 197.834 15.525,197.733 15.543,197.610 15.645 C 197.487 15.747,197.337 15.781,197.276 15.721 C 197.216 15.660,197.167 15.699,197.167 15.806 C 197.167 15.912,197.041 16.000,196.887 16.000 C 196.643 16.000,196.031 16.166,195.167 16.467 C 195.029 16.515,194.879 16.567,194.833 16.583 C 194.787 16.599,194.637 16.658,194.500 16.713 C 192.858 17.379,187.184 17.286,185.562 16.568 C 185.275 16.441,184.637 16.245,184.145 16.133 C 183.653 16.021,183.165 15.847,183.060 15.745 C 182.956 15.644,182.431 15.464,181.894 15.346 C 181.356 15.227,180.842 15.071,180.750 14.998 C 180.658 14.926,180.208 14.750,179.750 14.606 C 178.414 14.188,176.268 13.419,176.042 13.277 C 175.927 13.206,175.758 13.193,175.667 13.250 C 175.575 13.307,175.500 13.281,175.500 13.193 C 175.500 13.105,175.125 12.943,174.667 12.833 C 174.208 12.723,173.833 12.580,173.833 12.514 C 173.833 12.376,172.192 11.833,171.777 11.833 C 171.625 11.833,171.500 11.775,171.500 11.703 C 171.500 11.581,171.155 11.465,169.333 10.978 C 168.921 10.867,168.508 10.755,168.417 10.728 C 167.405 10.433,165.492 10.130,164.542 10.114 C 164.427 10.113,164.333 10.064,164.333 10.006 C 164.333 9.949,163.977 9.917,163.542 9.936 C 163.106 9.954,162.664 9.898,162.559 9.812 C 162.392 9.675,162.140 9.680,161.417 9.837 C 161.325 9.857,161.212 9.857,161.167 9.837 C 160.605 9.599,159.708 9.786,159.708 10.143 M201.805 12.667 C 201.545 12.953,201.546 12.990,201.818 13.236 C 202.202 13.584,202.318 13.569,202.288 13.175 C 202.270 12.930,202.211 12.894,202.049 13.029 C 201.739 13.286,201.783 12.998,202.109 12.638 C 202.261 12.470,202.317 12.340,202.234 12.347 C 202.151 12.355,201.958 12.499,201.805 12.667 " stroke="none" fill="#7487c8" fill-rule="evenodd"></path><path id="path2" d="M0.000 10.917 L 0.000 11.333 56.875 11.296 C 88.156 11.275,112.477 11.236,110.921 11.208 C 109.365 11.181,108.018 11.085,107.929 10.996 C 107.824 10.890,108.038 10.833,108.540 10.833 C 108.966 10.833,109.360 10.758,109.417 10.667 C 109.485 10.556,91.224 10.500,54.760 10.500 L 0.000 10.500 0.000 10.917 " stroke="none" fill="#2bc6bf" fill-rule="evenodd"></path><path id="path3" d="M157.134 9.754 C 157.106 9.781,156.708 9.825,156.250 9.850 C 155.792 9.876,155.362 9.976,155.294 10.073 C 155.212 10.192,155.171 10.185,155.169 10.050 C 155.167 9.908,155.035 9.893,154.708 9.998 C 153.655 10.337,144.755 10.502,127.635 10.501 C 115.737 10.500,109.484 10.557,109.417 10.667 C 109.360 10.758,108.966 10.833,108.540 10.833 C 107.921 10.833,107.808 10.875,107.975 11.042 C 108.139 11.206,112.221 11.255,127.133 11.273 C 145.871 11.296,153.506 11.158,154.110 10.785 C 154.276 10.682,158.114 10.429,158.995 10.463 C 159.586 10.485,159.864 10.274,159.724 9.909 C 159.655 9.730,157.302 9.589,157.134 9.754 M159.833 10.344 C 159.833 10.430,160.146 10.500,160.528 10.500 C 161.350 10.500,161.324 10.418,160.458 10.284 C 160.112 10.231,159.833 10.257,159.833 10.344 " stroke="none" fill="#5f9dc4" fill-rule="evenodd"></path><path id="path4" d="M252.917 0.106 C 252.398 0.224,251.112 0.708,250.921 0.856 C 249.452 2.002,247.667 4.156,247.667 4.783 C 247.667 4.902,247.602 5.000,247.524 5.000 C 247.445 5.000,247.014 5.606,246.565 6.346 C 246.117 7.086,245.546 8.005,245.297 8.388 C 245.048 8.770,244.691 9.346,244.504 9.667 C 242.679 12.791,241.455 14.145,239.872 14.789 C 238.885 15.190,237.083 15.308,236.539 15.006 C 236.380 14.917,235.904 14.695,235.482 14.512 C 234.759 14.199,233.609 13.165,232.667 11.981 C 232.438 11.693,232.094 11.289,231.902 11.082 C 231.711 10.875,231.265 10.341,230.911 9.895 C 230.557 9.449,230.185 9.008,230.084 8.917 C 229.984 8.825,229.781 8.575,229.634 8.362 C 229.292 7.866,226.867 6.000,226.563 6.000 C 226.437 6.000,226.333 5.940,226.333 5.866 C 226.333 5.643,223.782 4.673,222.488 4.403 C 221.820 4.264,221.217 4.115,221.148 4.072 C 220.407 3.614,215.688 4.240,214.072 5.010 C 213.700 5.188,213.323 5.333,213.235 5.333 C 213.147 5.333,212.627 5.556,212.079 5.828 C 211.531 6.100,210.996 6.325,210.889 6.328 C 210.782 6.331,210.669 6.390,210.639 6.458 C 210.590 6.568,210.138 6.824,208.309 7.777 C 208.067 7.904,207.776 8.118,207.664 8.253 C 207.551 8.389,207.375 8.503,207.271 8.507 C 207.168 8.510,206.824 8.735,206.506 9.007 C 206.189 9.278,205.870 9.500,205.798 9.500 C 205.663 9.500,205.480 9.645,204.536 10.503 C 204.235 10.776,203.916 11.000,203.828 11.000 C 203.739 11.000,203.667 11.112,203.667 11.250 C 203.667 11.387,203.560 11.500,203.429 11.500 C 203.298 11.500,203.035 11.698,202.845 11.939 C 202.655 12.181,202.500 12.321,202.500 12.250 C 202.500 12.179,202.350 12.312,202.167 12.545 C 201.756 13.068,201.735 13.285,202.125 12.979 C 202.390 12.771,202.395 12.777,202.186 13.044 C 202.009 13.269,201.903 13.293,201.728 13.148 C 201.557 13.006,201.438 13.011,201.252 13.165 C 201.001 13.374,201.071 13.746,201.331 13.585 C 201.408 13.537,201.499 13.579,201.532 13.678 C 201.565 13.777,201.800 13.665,202.054 13.429 C 202.309 13.193,202.593 13.000,202.685 13.000 C 202.777 13.000,202.807 12.925,202.750 12.833 C 202.693 12.742,202.764 12.667,202.907 12.667 C 203.050 12.667,203.167 12.592,203.167 12.500 C 203.167 12.408,203.246 12.333,203.343 12.333 C 203.500 12.333,203.770 12.107,205.265 10.721 C 205.480 10.522,205.801 10.313,205.979 10.257 C 206.157 10.200,206.345 10.044,206.396 9.910 C 206.447 9.776,206.593 9.667,206.719 9.667 C 206.845 9.667,207.075 9.527,207.229 9.356 C 207.384 9.186,207.808 8.912,208.172 8.748 C 208.536 8.584,208.833 8.386,208.833 8.308 C 208.833 8.230,208.935 8.167,209.060 8.167 C 209.185 8.167,209.551 7.987,209.874 7.768 C 210.380 7.425,211.197 7.032,213.750 5.906 C 214.025 5.784,214.700 5.559,215.250 5.406 C 215.800 5.252,216.326 5.066,216.418 4.993 C 217.296 4.295,222.906 4.903,224.750 5.895 C 225.025 6.043,225.317 6.165,225.398 6.166 C 226.011 6.170,228.757 8.462,230.000 10.008 C 230.321 10.407,230.808 10.999,231.083 11.324 C 231.358 11.648,231.658 12.012,231.750 12.133 C 232.046 12.521,234.075 14.574,234.449 14.864 C 234.649 15.019,235.211 15.273,235.698 15.430 C 236.185 15.586,236.696 15.765,236.833 15.827 C 237.244 16.012,238.778 16.035,239.109 15.860 C 239.278 15.771,239.723 15.617,240.098 15.517 C 240.472 15.418,240.942 15.204,241.141 15.043 C 241.340 14.882,241.799 14.525,242.160 14.250 C 242.522 13.975,242.821 13.661,242.826 13.551 C 242.830 13.442,242.972 13.254,243.142 13.134 C 243.312 13.015,243.575 12.675,243.727 12.380 C 244.020 11.811,244.714 10.719,244.998 10.382 C 245.091 10.271,245.167 10.136,245.167 10.081 C 245.167 10.027,245.519 9.443,245.950 8.783 C 246.380 8.123,246.716 7.563,246.696 7.538 C 246.676 7.514,246.811 7.331,246.997 7.132 C 247.182 6.933,247.333 6.706,247.333 6.628 C 247.333 6.550,247.409 6.395,247.502 6.285 C 247.761 5.977,248.388 4.997,248.830 4.208 C 249.049 3.819,249.289 3.500,249.364 3.500 C 249.439 3.500,249.500 3.387,249.500 3.250 C 249.500 3.112,249.575 3.000,249.667 3.000 C 249.758 3.000,249.833 2.889,249.833 2.754 C 249.833 2.619,250.051 2.396,250.318 2.258 C 250.584 2.120,250.903 1.909,251.026 1.789 C 251.363 1.460,252.702 0.836,252.861 0.934 C 252.937 0.981,253.000 0.940,253.000 0.843 C 253.000 0.642,254.873 0.595,255.069 0.792 C 255.138 0.860,255.319 0.919,255.472 0.923 C 255.625 0.926,255.925 1.025,256.138 1.144 C 256.351 1.262,256.633 1.318,256.763 1.268 C 256.902 1.215,257.000 1.279,257.000 1.422 C 257.000 1.571,257.161 1.667,257.411 1.667 C 257.727 1.667,257.798 1.731,257.716 1.944 C 257.645 2.130,257.674 2.182,257.805 2.101 C 257.916 2.032,258.001 2.075,258.003 2.198 C 258.004 2.357,258.049 2.348,258.167 2.167 C 258.415 1.782,258.364 1.535,258.042 1.560 C 257.880 1.573,257.770 1.485,257.796 1.363 C 257.821 1.241,257.770 1.186,257.682 1.240 C 257.595 1.295,257.417 1.188,257.288 1.004 C 257.159 0.820,257.004 0.718,256.943 0.779 C 256.883 0.839,256.833 0.796,256.833 0.683 C 256.833 0.553,256.710 0.517,256.500 0.583 C 256.309 0.644,256.167 0.613,256.167 0.511 C 256.167 0.413,255.979 0.333,255.750 0.333 C 255.521 0.333,255.333 0.275,255.333 0.205 C 255.333 0.062,253.446 -0.015,252.917 0.106 M258.446 2.067 C 258.289 2.476,258.304 2.538,258.528 2.399 C 258.659 2.319,258.689 2.369,258.619 2.551 C 258.562 2.700,258.586 2.867,258.674 2.921 C 258.860 3.036,258.866 2.559,258.684 2.096 C 258.567 1.798,258.550 1.795,258.446 2.067 M259.187 3.420 C 259.627 4.395,260.000 4.815,260.000 4.333 C 260.000 4.242,259.925 4.167,259.833 4.167 C 259.742 4.167,259.667 4.086,259.667 3.988 C 259.667 3.890,259.542 3.685,259.390 3.533 C 259.238 3.381,259.146 3.330,259.187 3.420 " stroke="none" fill="#9c65cc" fill-rule="evenodd"></path></g></svg>